<?xml version="1.0" encoding="UTF-8"?><svg id="Layer_1" xmlns="http://www.w3.org/2000/svg" xmlns:xlink="http://www.w3.org/1999/xlink" viewBox="0 0 600 635"><defs><style>.cls-1{fill:none;}.cls-2{font-family:Montserrat-Bold, Montserrat;font-size:28px;font-weight:700;}.cls-3{fill:#ea072b;}.cls-4{letter-spacing:0em;}.cls-5{fill:#ff0;}.cls-6{letter-spacing:0em;}.cls-7{letter-spacing:-.01em;}.cls-8{letter-spacing:0em;}.cls-9{clip-path:url(#clippath);}</style><clipPath id="clippath"><rect class="cls-1" y="35" width="600" height="600"/></clipPath></defs><g class="cls-9"><path class="cls-3" d="M427.36,207.63c-32.6-32.59-77.62-52.75-127.36-52.75-99.48,0-180.12,80.64-180.12,180.12s80.64,180.12,180.12,180.12c49.74,0,94.77-20.16,127.36-52.75l-12.13-12.13c-29.49,29.49-70.23,47.73-115.23,47.73-90,0-162.96-72.96-162.96-162.96s72.96-162.96,162.96-162.96c45,0,85.74,18.24,115.23,47.73l12.13-12.13Z"/><path class="cls-3" d="M403.1,231.89c-26.39-26.39-62.84-42.7-103.1-42.7-80.53,0-145.81,65.28-145.81,145.81s65.28,145.81,145.81,145.81c40.26,0,76.72-16.32,103.1-42.71l-12.13-12.13c-23.28,23.28-55.45,37.68-90.97,37.68-71.06,0-128.66-57.6-128.66-128.66s57.6-128.66,128.66-128.66c35.53,0,67.69,14.4,90.97,37.68l12.13-12.13Z"/><path class="cls-3" d="M102.73,335c0-108.95,88.32-197.27,197.27-197.27,54.47,0,103.79,22.08,139.49,57.78l12.13-12.13c-38.8-38.8-92.41-62.8-151.62-62.8-118.43,0-214.43,96-214.43,214.43s96,214.43,214.43,214.43c50.92,0,97.69-17.76,134.47-47.41v47.41h17.15v-62.8l-12.13-12.13c-35.7,35.7-85.02,57.78-139.49,57.78-108.95,0-197.27-88.32-197.27-197.27"/><path class="cls-3" d="M454.96,370.67c-4.18,0-7.75,1.36-10.06,3.84v-15.26h-7.07v41.95h7.07v-15.27c0-6.05,3.39-9.1,8.42-9.1,4.52,0,7.18,2.6,7.18,7.97v16.4h7.07v-17.3c0-9.1-5.37-13.23-12.61-13.23M430.02,394.53c-1.07.85-2.49,1.24-3.96,1.24-2.66,0-4.18-1.58-4.18-4.52v-14.36h8.09v-5.65h-8.09v-6.9h-7.07v27.08c0,6.67,3.79,10.18,10.4,10.18,2.55,0,5.09-.68,6.79-2.04l-1.98-5.03ZM398.98,371v16.06c0,5.65-1.87,8.37-6.28,8.37s-6.45-2.71-6.45-8.37v-16.06h-7.07v16.06c0,5.65-2.04,8.37-6.45,8.37s-6.28-2.71-6.28-8.37v-16.06h-7.07v16.68c0,8.76,4.58,13.91,13.29,13.91,4.64,0,7.92-1.47,10.01-4.69,2.2,3.39,5.65,4.69,10.01,4.69,8.65,0,13.34-5.15,13.34-13.91v-16.68h-7.07ZM336.73,395.54c-5.09,0-8.93-3.68-8.93-9.44s3.84-9.44,8.93-9.44,8.99,3.67,8.99,9.44-3.85,9.44-8.99,9.44M336.73,401.59c9.39,0,16.11-6.45,16.11-15.49s-6.73-15.43-16.11-15.43-16.06,6.39-16.06,15.43,6.78,15.49,16.06,15.49M306.71,375.41v-4.41h-6.73v30.19h7.07v-14.64c0-6.16,3.39-9.33,8.76-9.33.51,0,1.02.06,1.64.17v-6.73c-5.03,0-8.71,1.58-10.74,4.75M284.04,392.38c-2.49,2.09-5.77,3.11-9.05,3.11-7.01,0-13.4-4.75-13.4-13.85,0-8.42,5.94-14.13,14.36-14.13,4.24,0,7.8,1.41,10.91,4.52l4.64-4.52c-3.73-4.24-9.27-6.45-15.89-6.45-12.38,0-21.43,8.54-21.43,20.64,0,12.95,9.39,20.07,20.13,20.07,4.13,0,7.8-.96,10.63-2.88v2.32h6.05v-20.24h-6.95v11.42Z"/><path class="cls-3" d="M516.89,325.16c4.24,0,7.41,2.49,8.37,6.16l-17.08,3.28v-.06c0-5.77,3.56-9.39,8.71-9.39M518.19,344.44c-4.41,0-7.69-1.87-9.16-5.32l23.12-4.52c-.06-9.44-6.84-15.1-15.27-15.1-8.99,0-15.55,6.45-15.55,15.44s6.56,15.49,16.68,15.49c5.2,0,9.44-1.7,12.1-4.92l-3.73-4.35c-2.21,2.2-4.81,3.28-8.2,3.28M495.35,350.44c1.41,0,2.88-.23,4.24-.73l-.34-5.65c-.57.28-1.58.57-2.54.57-2.83,0-4.24-1.58-4.24-4.52v-32h-7.07v32.51c0,6.28,3.67,9.84,9.95,9.84M462.56,344.39c-5.09,0-8.99-3.68-8.99-9.44s3.9-9.44,8.99-9.44,8.93,3.68,8.93,9.44-3.84,9.44-8.93,9.44M463.35,319.51c-3.85,0-7.24,1.3-9.67,4.01v-15.43h-7.07v41.95h6.73v-3.9c2.38,2.88,5.88,4.3,10.01,4.3,8.82,0,15.32-6.11,15.32-15.49s-6.5-15.44-15.32-15.44M430.28,350.04h7.07v-30.19h-7.07v30.19ZM433.84,314.87c2.66,0,4.52-1.92,4.52-4.41,0-2.32-1.92-4.07-4.52-4.07s-4.52,1.86-4.52,4.24,1.92,4.24,4.52,4.24M422.47,343.37c-1.07.85-2.49,1.24-3.96,1.24-2.66,0-4.18-1.58-4.18-4.52v-14.36h8.09v-5.65h-8.09v-6.9h-7.07v27.08c0,6.67,3.79,10.18,10.4,10.18,2.54,0,5.09-.68,6.79-2.03l-1.98-5.03ZM382.27,344.39c-5.09,0-8.93-3.68-8.93-9.44s3.84-9.44,8.93-9.44,8.99,3.68,8.99,9.44-3.84,9.44-8.99,9.44M391.15,319.85v3.67c-2.43-2.71-5.82-4.01-9.67-4.01-8.82,0-15.27,6.05-15.27,15.44s6.45,15.49,15.27,15.49c4.13,0,7.63-1.41,10.01-4.3v3.9h6.73v-30.19h-7.07ZM345.86,344.39c-5.09,0-8.99-3.68-8.99-9.44s3.9-9.44,8.99-9.44,8.93,3.68,8.93,9.44-3.85,9.44-8.93,9.44M346.65,319.51c-4.13,0-7.63,1.41-10.01,4.3v-3.96h-6.73v41.16h7.07v-14.64c2.43,2.77,5.82,4.07,9.67,4.07,8.82,0,15.32-6.11,15.32-15.49s-6.5-15.44-15.32-15.44M308.49,319.51c-4.81,0-8.88,1.92-11.31,5.03-2.09-3.39-5.77-5.03-10.18-5.03-4.13,0-7.63,1.47-9.9,4.18v-3.85h-6.73v30.19h7.07v-15.32c0-5.99,3.17-9.05,7.86-9.05,4.3,0,6.79,2.6,6.79,7.97v16.4h7.07v-15.32c0-5.99,3.22-9.05,7.86-9.05,4.3,0,6.79,2.6,6.79,7.97v16.4h7.07v-17.3c0-9.1-5.09-13.23-12.38-13.23M247.48,344.39c-5.09,0-8.93-3.68-8.93-9.44s3.84-9.44,8.93-9.44,8.99,3.68,8.99,9.44-3.85,9.44-8.99,9.44M247.48,350.44c9.39,0,16.11-6.44,16.11-15.49s-6.73-15.44-16.11-15.44-16.06,6.39-16.06,15.44,6.78,15.49,16.06,15.49M212.94,350.61c6.5,0,12.04-2.32,15.72-6.61l-4.75-4.52c-2.88,3.17-6.45,4.69-10.57,4.69-8.2,0-14.13-5.77-14.13-13.91s5.94-13.91,14.13-13.91c4.13,0,7.69,1.53,10.57,4.64l4.75-4.47c-3.68-4.3-9.22-6.62-15.66-6.62-12.16,0-21.2,8.54-21.2,20.36s9.05,20.35,21.15,20.35"/><path class="cls-3" d="M460.35,274.01c4.24,0,7.41,2.49,8.37,6.16l-17.08,3.28v-.06c0-5.77,3.56-9.39,8.71-9.39M461.65,293.29c-4.41,0-7.69-1.87-9.16-5.32l23.12-4.52c-.06-9.44-6.84-15.1-15.27-15.1-8.99,0-15.55,6.45-15.55,15.43s6.56,15.49,16.68,15.49c5.2,0,9.44-1.7,12.1-4.92l-3.73-4.35c-2.21,2.2-4.81,3.28-8.2,3.28M440.51,292.21c-1.08.85-2.49,1.24-3.96,1.24-2.66,0-4.18-1.58-4.18-4.52v-14.36h8.08v-5.65h-8.08v-6.9h-7.07v27.08c0,6.67,3.79,10.18,10.4,10.18,2.54,0,5.09-.68,6.79-2.03l-1.98-5.03ZM400.31,293.23c-5.09,0-8.93-3.68-8.93-9.44s3.84-9.44,8.93-9.44,8.99,3.67,8.99,9.44-3.84,9.44-8.99,9.44M409.19,268.69v3.67c-2.43-2.71-5.82-4.01-9.67-4.01-8.82,0-15.27,6.05-15.27,15.43s6.45,15.49,15.27,15.49c4.13,0,7.63-1.41,10.01-4.3v3.9h6.73v-30.19h-7.07ZM365.03,268.35c-4.81,0-8.88,1.92-11.31,5.03-2.09-3.39-5.77-5.03-10.18-5.03-4.13,0-7.63,1.47-9.89,4.18v-3.85h-6.73v30.19h7.07v-15.32c0-5.99,3.17-9.05,7.86-9.05,4.3,0,6.79,2.6,6.79,7.97v16.4h7.07v-15.32c0-5.99,3.22-9.05,7.86-9.05,4.3,0,6.79,2.6,6.79,7.97v16.4h7.07v-17.3c0-9.1-5.09-13.23-12.38-13.23M310.58,298.89h7.07v-30.19h-7.07v30.19ZM314.14,263.72c2.66,0,4.52-1.92,4.52-4.41,0-2.32-1.92-4.07-4.52-4.07s-4.52,1.86-4.52,4.24,1.92,4.24,4.52,4.24M301.54,299.28c1.41,0,2.88-.23,4.24-.73l-.34-5.65c-.57.28-1.58.57-2.54.57-2.83,0-4.24-1.58-4.24-4.52v-32h-7.07v32.51c0,6.28,3.68,9.84,9.95,9.84M269.48,299.45c6.5,0,12.04-2.32,15.72-6.61l-4.75-4.52c-2.88,3.17-6.45,4.69-10.57,4.69-8.2,0-14.13-5.77-14.13-13.91s5.94-13.91,14.13-13.91c4.13,0,7.69,1.53,10.57,4.64l4.75-4.47c-3.67-4.3-9.22-6.61-15.66-6.61-12.16,0-21.2,8.54-21.2,20.35s9.05,20.35,21.15,20.35"/><rect class="cls-5" width="174.34" height="35"/><text class="cls-2" transform="translate(6.25 27.55)"><tspan class="cls-7" x="0" y="0">L</tspan><tspan x="16.6" y="0">OGO </tspan><tspan class="cls-8" x="93.38" y="0">2</tspan><tspan class="cls-6" x="109.87" y="0">0</tspan><tspan class="cls-4" x="128.74" y="0">25</tspan></text></g></svg>