<?xml version="1.0" encoding="UTF-8"?><svg id="Layer_1" xmlns="http://www.w3.org/2000/svg" viewBox="0 0 508.25 128"><defs><style>.cls-1{fill:#3c175c;}</style></defs><path class="cls-1" d="M68.04,0H0v71.64c0,6.1,2.43,12.12,5.1,17.82,4.17,8.93,13.05,20.25,23.01,27.54.66.49,1.32.95,1.98,1.39.22.15.45.3.67.44.43.29.86.57,1.3.84.27.17.53.33.8.49.38.24.77.47,1.15.68.28.17.56.33.84.48.36.21.72.4,1.08.59.29.15.57.31.86.45.34.18.68.35,1.02.52.28.14.57.29.84.41.34.16.68.32,1.01.47.26.12.53.25.78.37.55.24,1.09.47,1.61.7,5.45,2.26,9.63,3.15,10.81,3.16h.02c1.27-.01,6.01-1.04,12.05-3.69h0c.41-.18.83-.38,1.26-.58.14-.06.28-.13.43-.19.39-.19.78-.38,1.18-.58.2-.1.4-.2.61-.3.46-.24.93-.48,1.4-.74.45-.24.91-.48,1.36-.74.25-.15.51-.29.76-.44.39-.23.77-.46,1.16-.7.25-.15.5-.3.75-.46.42-.26.84-.53,1.26-.82.21-.14.43-.28.64-.42.63-.43,1.28-.88,1.91-1.35,9.96-7.29,18.85-18.61,23.01-27.54,2.66-5.69,5.1-11.71,5.1-17.82V0h-37.71ZM7.24,16.98c1.34,1.16,5.13,4.06,9.23,4.11h.3v-8.36h-4.1v-4h4.1v-4.1h3.99v4.1h4.03v4h-4.03v8.36h.31c4.07-.08,7.81-2.96,9.15-4.11v11.31c-1.33-1.16-5.08-4.03-9.15-4.1h-.31s0,8.95,0,8.95h4.11v4h-4.11v4.86h-3.99v-4.86h-4.03v-4h4.03v-8.96h-.3c-4.1.04-7.88,2.94-9.23,4.11v-11.31h0ZM72.79,85.82c-.07-.1-.19-.38-.14-.56.02-.06.05-.1.11-.12.37-.18,1.08-.28,1.08-.28.04,0,.08-.04.08-.09,0-.04-.03-.08-.07-.09-.37-.07-1.39-.28-1.6-.45-.28-.21-.55-.62-.62-.81-.04-.1-.07-.2-.09-.28.33.07,1.07.22,1.22.22.16,0,.38-.08.48-.11.01,0,.03,0,.04-.02.03-.02.04-.07.02-.11-.02-.04-.07-.05-.11-.04h0s-.24.01-.99-.42c-.36-.22-.65-.36-.88-.49-.31-.16-.5-.26-.56-.35-.04-.07-.09-.15-.12-.22.29.06.86.18,1.22.18h.69s.08-.04.09-.09c0-.05-.03-.09-.08-.09,0,0-.95-.14-1.6-.6-.09-.05-.17-.11-.25-.16-.54-.36-.87-.58-1.04-1.11-.08-.24-.33-.99-.24-1.09.01,0,.04,0,.12.05.35.21,1.95,1.14,3.02,1.69v.4c-.03.34.17.64.49.75.29.1.62,0,.83-.24.75,1.02,2,3.31,2.75,4.69.28.52.5.93.65,1.18.66,1.16,1.59,1.79,1.79,1.9.09.05.2.26.17.7-.03.43,0,1.99,0,2.32-.09.03-.27.1-.44.07-.05-.01-.13-.01-.2-.02-.25-.01-.42-.02-.48-.18-.09-.21.02-.97.07-1.24,0-.02,0-.03,0-.05-.02-.05-.11-.22-.25-.22-.04,0-.11.02-.16.1l-.02.03c-.1.17-.2.35-.09.72l.03.09q.08.26-.07.38c-.2.17-.54.22-.8.1-.09-.04-.15-.08-.17-.13-.03-.07.03-.2.1-.35.15-.31.12-.82.11-.84,0-.02-.01-.05-.04-.07-.02-.01-.05-.01-.08,0-.04.02-.42.21-.54.43-.06.11-.07.23-.08.33,0,.06-.01.16-.04.17-.12,0-.5-.27-.53-.46-.02-.15.32-1.29.64-2.29.02-.04,0-.08-.04-.1-.04-.02-.09-.02-.11.02-.01.02-.41.41-.59.92-.09.25-.12.48-.14.64-.01.08-.02.19-.04.23-.09,0-.21-.06-.52-.46-.35-.48-.46-.85-.41-.99.04-.12.25-.31.42-.47.11-.1.21-.2.28-.29.2-.23.2-.43.2-.45,0-.02-.01-.05-.03-.06-.01-.02-.04-.03-.06-.03-.03,0-.52.04-.9.26-.14.09-.29.17-.37.17-.03,0-.06,0-.11-.09-.04-.09-.1-.17-.18-.26-.1-.14-.21-.28-.24-.44-.03-.11.02-.17.03-.19.25-.14,1.18-.42,1.19-.42.04-.01.07-.05.06-.09,0-.04-.04-.08-.08-.08,0,0-.33-.04-.71-.11-.34-.05-.92-.47-1.02-.54h0ZM76.57,82.63l.84-1.63c.09-.17.25-.26.44-.26s.35.09.44.25l1.51,2.65-.03.38c-.03.27-.05.57-.08.87l-.04.52-1.76-3.12-.86,1.68c-.09.17-.26.27-.45.27s-.37-.11-.45-.27l-1.9-3.77-.33.44c-.12.16-.34.23-.53.17-.2-.07-.32-.26-.31-.46l.11-2.59s0-.06.01-.09c.04-.14.13-.24.25-.3.15-.07.35-.05.48.04l2.09,1.54c.15.11.23.31.18.49-.07.22-.25.35-.46.35h-.59s1.45,2.84,1.45,2.84h0ZM80.82,78.41s-.14-.19-.19-.63c-.09-.68.45-1.46.64-1.57.38,1.35,1.02,1.81,1.04,1.82.02.02.06.02.09,0,.03-.02.21-.12.44-.67.16-.37.1-.8.03-1.06.27.2.76.6.82,1.14.08.67.05.8.03.89,0,.02,0,.04-.01.05,0,.04,0,.08.02.1.02.03.06.04.09.04.16,0,.62-.44.7-.93.06.07.17.19.24.37.07.18.17.5.02.82-.23.49-.65.86-.91.99h-3.59c-.44-.17-.9-.86-1-1.31-.07-.28-.07-.64-.06-.89.1.16.25.38.49.59.38.34.8.38.95.38h.09s.06-.03.07-.06c0-.03,0-.06,0-.08h0ZM88.36,79.79c-.21,0-.39-.13-.46-.34-.05-.19.02-.39.18-.5l2.1-1.54c.13-.09.32-.12.48-.04.12.06.21.16.24.29,0,.04.02.08.02.11l.11,2.58c0,.2-.12.38-.31.46-.19.06-.41,0-.53-.17l-.33-.44-1.9,3.77c-.08.17-.25.27-.45.27s-.36-.11-.45-.27l-.86-1.68-1.77,3.12-.04-.52c-.02-.3-.05-.6-.08-.87l-.04-.38,1.51-2.65c.09-.16.26-.25.44-.25s.35.1.44.26l.84,1.63,1.45-2.85h-.59ZM80.4,82.43h3.37c.14,1.13.53,4.68.53,8.15,0,3.88-.5,7.94-.56,8.4l-.02.18h-3.27l-.02-.18s-.57-4.28-.57-8.4c0-3.53.41-7.15.54-8.15h0ZM79.45,81.12c0-.45.37-.81.81-.81h3.77c.45,0,.81.36.81.81s-.36.81-.81.81h-3.77c-.44,0-.81-.36-.81-.81h0ZM80.22,99.64h3.77c.45,0,.8.36.8.8s-.36.81-.8.81h-3.77c-.45,0-.81-.36-.81-.81s.36-.8.81-.8h0ZM79.18,97.07l-3.3,2.93.51.2c.2.07.32.26.3.47-.02.2-.16.38-.36.42l-2.52.57s-.06.02-.1.02c-.14,0-.27-.06-.35-.16-.11-.13-.14-.3-.09-.47l.93-2.44c.07-.18.25-.29.43-.29.24.01.41.14.46.35l.15.57,2.53-2.27-1.78-.38c-.18-.03-.32-.16-.38-.34-.05-.18,0-.37.13-.5l3.13-3.11c.05-.06.12-.09.21-.12l.19-.05v.2c.02.29.03.58.04.86v.08s-2.21,2.2-2.21,2.2l1.85.39c.18.04.34.18.38.36.05.18-.01.38-.15.51h0ZM85.03,104.03c-.1-.18-.26-.39-.49-.61-.38-.35-.79-.38-.95-.38-.06,0-.09,0-.1,0-.03,0-.06.02-.07.05-.01.03,0,.06.01.09,0,0,.14.19.19.62.09.68-.45,1.46-.64,1.58-.38-1.35-1.02-1.8-1.04-1.82-.01-.01-.03-.01-.05-.01,0,0-.03,0-.04,0-.03.02-.2.12-.44.66-.16.38-.1.8-.03,1.06-.28-.2-.76-.6-.82-1.13-.08-.67-.05-.8-.03-.89,0-.02,0-.03.01-.05,0-.04,0-.08-.02-.1-.02-.03-.05-.04-.08-.04-.17,0-.62.44-.7.94-.06-.06-.15-.19-.24-.37-.07-.17-.18-.5-.03-.82.23-.48.65-.86.91-.99h3.59c.44.18.9.85,1,1.31.07.29.07.64.06.9h0ZM90.83,101.52c-.09.1-.22.16-.36.16-.04,0-.07,0-.1-.02l-2.52-.57c-.2-.05-.35-.22-.36-.42-.02-.21.1-.39.29-.47l.52-.2-3.3-2.93c-.14-.13-.2-.32-.15-.51.05-.18.2-.33.38-.36l1.85-.39-2.21-2.2v-.08c.01-.28.03-.57.03-.86v-.2s.21.05.21.05c.09.03.16.06.21.12l3.12,3.11c.13.13.18.32.13.5-.05.18-.2.32-.38.35l-1.78.38,2.53,2.27.15-.57c.05-.21.23-.34.45-.35.19,0,.37.11.44.29l.93,2.44c.06.17.03.34-.08.47h0ZM94.47,79.74c-.18.53-.5.75-1.04,1.11-.08.05-.17.11-.25.16-.65.45-1.6.59-1.61.6-.05,0-.08.04-.08.09,0,.05.04.09.08.09h.69c.37,0,.94-.11,1.22-.18-.03.07-.08.15-.12.22-.06.08-.25.18-.56.35-.23.12-.51.27-.88.49-.75.43-.96.42-.99.42h0s-.09,0-.11.04c-.02.04,0,.09.03.11,0,.02.02.02.04.02.09.03.31.11.47.11.15,0,.89-.16,1.22-.22-.02.08-.06.18-.1.28-.06.2-.33.61-.6.81-.23.17-1.24.38-1.61.45-.05,0-.08.05-.08.09,0,.05.03.09.08.09,0,0,.71.1,1.08.28.06.02.09.06.11.12.05.17-.08.45-.14.56-.09.08-.68.49-1.02.54-.38.07-.71.11-.71.11-.04,0-.08.04-.08.08,0,.04.02.08.06.09,0,0,.94.28,1.19.42.02.02.06.08.04.19-.04.16-.14.31-.25.44-.07.09-.13.17-.17.26-.04.09-.08.09-.11.09-.09,0-.23-.08-.37-.17-.37-.22-.88-.26-.9-.26-.02,0-.05.01-.06.03-.02.01-.03.03-.03.06,0,.02,0,.22.19.45.07.09.17.18.28.29.17.16.38.36.42.47.05.15-.06.52-.41.99-.31.41-.43.46-.52.46-.02-.04-.03-.15-.04-.23-.02-.17-.05-.39-.14-.64-.18-.51-.58-.9-.59-.92-.03-.03-.08-.04-.11-.02-.03.02-.05.07-.04.1.32,1.01.67,2.14.64,2.29-.03.19-.41.46-.54.46-.02,0-.04-.11-.04-.17-.01-.1-.03-.22-.08-.33-.12-.22-.5-.41-.54-.43-.03-.01-.06-.01-.08,0-.03.02-.04.05-.04.07,0,.02-.03.53.12.84.07.15.13.27.1.35-.01.05-.07.09-.17.13-.26.12-.59.07-.8-.1q-.15-.12-.07-.38l.03-.09c.12-.38,0-.55-.1-.72l-.02-.03c-.05-.08-.11-.1-.16-.1-.13,0-.22.17-.25.22,0,.02-.01.04,0,.05.05.27.16,1.03.08,1.24-.06.16-.23.17-.48.18-.07,0-.14,0-.21.02-.16.02-.34-.04-.43-.07,0-.33.04-1.89,0-2.32-.03-.44.07-.65.17-.7.2-.1,1.13-.74,1.79-1.9.14-.25.36-.66.64-1.18.75-1.38,1.99-3.67,2.75-4.69.2.24.53.34.82.24.32-.1.52-.41.51-.75l-.02-.4c1.07-.55,2.68-1.48,3.02-1.69.07-.05.1-.05.11-.05.09.1-.16.85-.24,1.09h0ZM104.16,70.67c-.51.19-.95.42-1.32.64-.46.29-.8.58-1.02.79-.11.1-.19.18-.24.24-.03.03-.04.05-.05.06,0,0,0,0,0,0h0s0,0,0,0l-.74.91-.72-.92c-.08-.1-1.88-2.25-5.37-2.24-1.84,0-3.2.58-4.12,1.15-.46.29-.8.58-1.02.79-.11.1-.19.18-.24.24-.03.03-.04.05-.05.06,0,0,0,0,0,0h0s0,0,0,0l-.73.91-.72-.92c-.09-.1-1.88-2.25-5.38-2.24-1.84,0-3.16.58-4.06,1.15-.44.29-.77.57-.98.77-.1.1-.18.19-.22.24-.03.02-.04.05-.05.06,0,0,0,0,0,0l-.73.96-.74-.95c-.09-.1-1.88-2.25-5.38-2.24-1.96,0-3.17.25-3.85.46-.34.11-.55.22-.66.28-.01,0-.02.01-.03.02-.17.26-.77,1.46-.77,4.51,0,1.84.58,3.18,1.15,4.08.28.45.57.78.78,1,.1.11.19.19.24.24.03.02.05.04.06.05,0,0,0,0,0,0l.95.74-.96.73h0s-2.24,1.78-2.23,5.32c0,1.84.58,3.18,1.15,4.08.28.45.57.78.78,1.01.1.11.19.19.24.23.03.03.05.05.06.06,0,0,0,0,0,0l.93.72-.92.74c-.11.1-2.26,1.94-2.25,5.44,0,1.84.58,3.18,1.15,4.08.28.45.57.78.78,1.01.1.1.19.19.24.23.03.03.05.04.06.05,0,0,0,0,0,0h0l.93.73-.91.73c-.05.04-2.26,1.89-2.25,5.44,0,1.84.58,3.18,1.15,4.08.28.45.57.78.78,1,.1.11.19.18.24.24.03.03.05.03.06.05,0,0,0,0,0,0h0s.93.73.93.73l-.92.73c-.09.07-1.41,1.25-1.97,3.43-6.17,2.83-11.11,3.96-12.31,3.97h0c-1.11,0-5.4-.98-10.91-3.35-.45-2.59-2.03-3.96-2.12-4.05h0l-.92-.73.93-.73s0,0,0-.01c.01-.01.03-.02.06-.05.06-.05.14-.13.24-.24.21-.22.49-.55.78-1,.57-.9,1.15-2.24,1.15-4.08,0-3.55-2.19-5.4-2.25-5.44l-.91-.73.93-.73s0,0,0,0c.01,0,.03-.02.06-.05.06-.04.14-.13.24-.23.21-.22.49-.55.78-1.01.57-.9,1.15-2.24,1.15-4.08,0-3.49-2.13-5.34-2.24-5.44h0l-.92-.74.93-.72s0,0,0,0c.01-.01.03-.04.06-.06.06-.04.14-.12.24-.23.21-.23.49-.55.78-1.01.57-.9,1.15-2.24,1.15-4.08,0-3.55-2.19-5.28-2.23-5.32l-.96-.73.95-.74s0,0,0,0c.01,0,.03-.03.06-.05.06-.05.14-.13.24-.24.21-.22.49-.55.78-1,.57-.9,1.15-2.24,1.15-4.08,0-3.05-.61-4.25-.77-4.51-.01,0-.02-.02-.03-.02-.11-.07-.33-.17-.67-.28-.68-.22-1.89-.46-3.85-.46-3.5-.01-5.29,2.13-5.38,2.24l-.74.95-.73-.96s0,0,0,0c-.01,0-.02-.04-.05-.06-.05-.06-.12-.14-.23-.24-.21-.2-.54-.49-.98-.77-.89-.57-2.22-1.15-4.06-1.15-3.5-.01-5.29,2.13-5.38,2.24l-.72.92-.74-.91h0s0,0,0,0c0,0,0,0,0,0,0-.01-.03-.04-.05-.06-.05-.06-.13-.14-.24-.24-.22-.21-.57-.5-1.02-.79-.92-.57-2.28-1.15-4.12-1.15-3.5-.01-5.29,2.13-5.37,2.24l-.72.92-.74-.91h0s0,0,0,0c0,0,0,0,0,0,0-.01-.03-.04-.05-.06-.05-.06-.13-.14-.24-.24-.22-.21-.57-.5-1.02-.79-.64-.39-1.5-.79-2.57-.99v-22.11c1.07-.21,1.94-.6,2.57-1,.45-.28.8-.57,1.02-.78.11-.1.19-.18.24-.25.02-.03.04-.04.05-.06,0,0,0,0,0,0h0s0,0,0,0l.74-.92.72.93c.08.11,1.88,2.24,5.37,2.24,1.84,0,3.2-.58,4.12-1.16.46-.28.8-.57,1.02-.78.11-.1.19-.18.24-.25.02-.03.04-.04.05-.06,0,0,0,0,0,0h0s0,0,0,0l.74-.92.72.93c.09.11,1.88,2.24,5.38,2.24,1.84,0,3.17-.58,4.06-1.15.44-.28.77-.56.98-.78.11-.1.18-.19.23-.24.03-.03.04-.05.05-.05,0,0,0,0,0,0l.74-.96.74.95c.09.11,1.88,2.24,5.38,2.24,1.96,0,3.17-.25,3.85-.46.34-.12.55-.22.67-.28.01-.01.02-.01.03-.02.16-.28.77-1.47.77-4.52,0-1.84-.58-3.19-1.15-4.09-.29-.45-.57-.78-.78-.99-.1-.11-.19-.19-.24-.24-.02-.02-.04-.04-.06-.05,0,0,0-.01,0-.01h0l-.95-.74.96-.73s2.23-1.78,2.23-5.32c0-1.84-.58-3.19-1.15-4.09-.29-.45-.57-.79-.78-1-.1-.11-.19-.19-.24-.23-.02-.02-.04-.04-.06-.05,0,0,0,0,0,0l-.93-.73.92-.73h0c.11-.09,2.25-1.94,2.24-5.44,0-1.84-.58-3.19-1.15-4.08-.29-.44-.57-.79-.78-1-.1-.11-.19-.19-.24-.23-.02-.03-.04-.05-.06-.06h0l-.93-.73.91-.73c.05-.05,2.25-1.9,2.25-5.44,0-1.85-.58-3.19-1.15-4.08-.18-.29-.35-.51-.52-.7h26.16c-.16.19-.34.41-.51.7-.57.89-1.15,2.24-1.15,4.08,0,3.54,2.2,5.39,2.25,5.44l.91.73-.93.73h0s-.03.03-.06.06c-.05.05-.14.12-.24.23-.21.21-.49.55-.78,1-.57.9-1.15,2.24-1.15,4.08-.01,3.49,2.13,5.34,2.25,5.44l.92.73-.93.73s0,0,0,0c-.01,0-.03.03-.06.05-.05.05-.14.13-.24.23-.21.21-.49.55-.78,1-.57.9-1.15,2.25-1.15,4.09,0,3.53,2.18,5.28,2.23,5.32h0l.96.73-.95.74s0,0,0,.01c-.01,0-.03.03-.06.05-.05.05-.14.13-.24.24-.21.21-.49.54-.78.99-.57.9-1.15,2.25-1.15,4.09,0,3.05.6,4.24.77,4.52,0,0,.02,0,.03.02.11.06.32.16.66.28.68.22,1.89.46,3.85.46,3.5,0,5.29-2.13,5.38-2.24l.74-.95.73.96s0,0,0,0c0,.01.03.03.05.06.04.05.12.14.22.24.21.21.54.5.98.78.89.57,2.22,1.15,4.06,1.15,3.5,0,5.29-2.13,5.38-2.24l.72-.93.73.92h0s0,0,0,0c0,0,0,0,0,0,.01.01.03.03.05.06.05.06.13.15.24.25.22.21.57.5,1.02.78.92.58,2.27,1.16,4.12,1.16,3.5,0,5.29-2.13,5.37-2.24l.72-.93.74.92h0s0,0,0,0c0,0,0,0,0,0,.01.01.03.03.06.06.05.06.13.15.24.25.22.21.56.5,1.02.78.36.23.81.46,1.32.65v22.81h0ZM74.93,55.78c.19.51.29,1.02.29,1.51,0,1.09-.5,2.1-1.38,2.77-.7.54-2.6,1.73-5.2,2.12-1.12.17-2.07.36-2.79.54-.3.07-.55.15-.77.22.13.19.21.41.21.65,0,.65-.52,1.17-1.17,1.17s-1.18-.52-1.18-1.17c0-.02.01-.04.01-.05v-.02c.04-.65.24-1.15.75-1.55.21-.14.39-.21.66-.31.27-.09.6-.18.99-.29.79-.2,1.83-.42,3.08-.6,2.26-.34,4.01-1.43,4.53-1.84.56-.45.81-.97.82-1.64,0-.3-.06-.64-.2-1.02-.11-.32-.41-.56-.89-.75-.47-.18-1.07-.25-1.54-.25-.15,0-.28,0-.39.01-1,.08-2.24.74-3.23,1.36,0,0-6.09,6.13-6.7,6.91-.59.78-2.15,2.78-5.11,3,.22.09.37.3.37.54,0,.33-.26.59-.58.59h-.33l.82,1.92h2.93c.32,0,.59.26.59.59s-.27.59-.59.59h-11.94c-.33,0-.59-.27-.59-.59s.26-.59.59-.59h2.81l.9-1.92h-.33c-.32,0-.59-.26-.59-.59,0-.23.14-.43.33-.52-.15,0-.24-.02-.24-.02,0,0-3.71-1.16-5.95-4.14-.68-.9-2.95-4-4.82-4.42-1.34-.18-6.78-.91-6.78-.91-.4-.04-.69-.39-.65-.79.04-.4.39-.69.79-.65,0,0,1,.1,2.29.23-.21-.11-.35-.33-.31-.58.03-.27.25-.47.51-.5h-.01c-.68-.13-1.33-1.25-1.4-1.92-.08-.68.15-1.59.15-1.59,0,0,.12.58.65,1.18.52.61,1.17.6,1.17.6,0,0-.12-.18-.15-.88-.11-1,1.21-2.29,1.26-1.97.27,1.79,1.02,2.45,1.02,2.45,0,0,.22-.08.6-.73.37-.64.13-1.56.13-1.56,0,0,1.14.8,1.15,1.85,0,1.03-.09,1.09-.13,1.22-.06.22.82-.33.95-1.03.05-.31.35,1.23.03,1.7-.46.7-.93,1.18-1.24,1.2h-.04c.16.12.26.31.24.53-.03.3-.28.51-.58.51.25.03.49.07.71.11.98.16,2.92.27,4.65.35h1.34c-.22-.09-.38-.29-.38-.54,0-.33.26-.59.58-.59h4.13l.91-1.3c-.15-.11-.27-.27-.27-.47,0-.33.27-.59.59-.59h1.31c-.29-.17-.5-.47-.5-.84,0-.55.44-.99.99-.99s.99.44.99.99c0,.37-.2.67-.5.84h1.45c.32,0,.59.27.59.59,0,.22-.13.39-.3.5l.69,1.27h4.47c.32,0,.58.26.58.59,0,.25-.16.45-.39.54,1.5,0,2.57-.02,2.87-.05,1.04-.08,1.98-.45,2.7-.81.26-.19.56-.39.89-.6,1.05-.65,2.39-1.38,3.78-1.51.16,0,.33-.02.52-.02.6,0,1.34.08,2.04.33.7.26,1.43.75,1.74,1.61h0Z"/><polygon class="cls-1" points="131.7 43.69 131.7 0 138.32 0 138.32 37.74 159.37 37.74 159.37 43.69 131.7 43.69 131.7 43.69"/><path class="cls-1" d="M185.64,40.38c-2.02,2.08-5.09,3.68-9.33,3.68s-7.24-1.59-9.27-3.68c-2.95-3.07-3.68-7-3.68-12.27s.73-9.15,3.68-12.22c2.02-2.09,5.03-3.68,9.27-3.68s7.3,1.6,9.33,3.68c2.95,3.07,3.68,7,3.68,12.22s-.73,9.21-3.68,12.27h0ZM180.91,19.57c-1.16-1.17-2.76-1.78-4.6-1.78s-3.37.62-4.54,1.78c-1.9,1.9-2.15,5.15-2.15,8.53s.25,6.63,2.15,8.53c1.17,1.17,2.7,1.84,4.54,1.84s3.44-.67,4.6-1.84c1.9-1.9,2.15-5.16,2.15-8.53s-.24-6.64-2.15-8.53h0Z"/><path class="cls-1" d="M215.22,43.69v-3.14c-2.15,2.34-5.15,3.5-8.29,3.5s-5.83-1.04-7.67-2.82c-2.39-2.34-3.13-5.28-3.13-8.78V12.57h6.26v18.97c0,4.85,2.76,6.93,6.26,6.93s6.44-2.14,6.44-6.93V12.57h6.26v31.12h-6.14Z"/><path class="cls-1" d="M240.38,56.64c-4.73,0-7.74-1.11-10.99-4.11l3.99-3.99c1.96,1.84,3.68,2.76,6.75,2.76,5.28,0,7.3-3.75,7.3-7.92v-3.99c-2.27,2.7-4.85,3.56-8.04,3.56s-5.71-1.04-7.43-2.76c-3.01-3.01-3.5-7.36-3.5-12.64s.49-9.64,3.5-12.65c1.72-1.72,4.36-2.7,7.49-2.7,3.31,0,5.83.86,8.16,3.68v-3.32h6.07v30.94c0,7.61-5.03,13.13-13.31,13.13h0ZM241.11,17.79c-5.64,0-6.38,4.85-6.38,9.76s.74,9.76,6.38,9.76,6.32-4.85,6.32-9.76-.68-9.76-6.32-9.76h0Z"/><path class="cls-1" d="M281.25,43.69v-18.97c0-4.84-2.76-6.93-6.26-6.93s-6.44,2.16-6.44,6.93v18.97h-6.26V0h6.26v15.7c2.09-2.33,4.97-3.5,8.17-3.5s5.83,1.04,7.67,2.83c2.39,2.33,3.13,5.28,3.13,8.78v19.88h-6.26Z"/><path class="cls-1" d="M317.76,41.3c-1.72,1.72-4.48,2.76-7.61,2.76-3.32,0-5.89-.86-8.22-3.68v3.31h-6.14V0h6.26v15.7c2.27-2.7,4.85-3.5,8.16-3.5,3.13,0,5.83,1.04,7.55,2.77,3.01,3.07,3.5,8.04,3.5,13.14s-.5,10.12-3.5,13.19h0ZM308.56,17.79c-5.71,0-6.51,4.79-6.51,10.32s.8,10.37,6.51,10.37,6.44-4.84,6.44-10.37-.8-10.32-6.44-10.32h0Z"/><path class="cls-1" d="M349.19,40.38c-2.03,2.08-5.09,3.68-9.33,3.68s-7.24-1.59-9.26-3.68c-2.95-3.07-3.69-7-3.69-12.27s.74-9.15,3.69-12.22c2.02-2.09,5.03-3.68,9.26-3.68s7.31,1.6,9.33,3.68c2.95,3.07,3.68,7,3.68,12.22s-.74,9.21-3.68,12.27h0ZM344.46,19.57c-1.17-1.17-2.77-1.78-4.61-1.78s-3.37.62-4.54,1.78c-1.9,1.9-2.15,5.15-2.15,8.53s.25,6.63,2.15,8.53c1.16,1.17,2.7,1.84,4.54,1.84s3.44-.67,4.61-1.84c1.9-1.9,2.15-5.16,2.15-8.53s-.25-6.64-2.15-8.53h0Z"/><path class="cls-1" d="M377.11,19.89c-1.41-1.42-2.52-2.1-4.67-2.1-3.38,0-6.2,2.71-6.2,7v18.9h-6.26V12.57h6.14v3.38c1.6-2.21,4.79-3.75,8.29-3.75,3.01,0,5.28.8,7.42,2.95l-4.72,4.73h0Z"/><path class="cls-1" d="M406.38,40.38c-2.02,2.08-5.09,3.68-9.32,3.68s-7.25-1.59-9.27-3.68c-2.95-3.07-3.68-7-3.68-12.27s.74-9.15,3.68-12.22c2.02-2.09,5.03-3.68,9.27-3.68s7.3,1.6,9.32,3.68c2.95,3.07,3.69,7,3.69,12.22s-.74,9.21-3.69,12.27h0ZM401.65,19.57c-1.16-1.17-2.76-1.78-4.6-1.78s-3.38.62-4.55,1.78c-1.9,1.9-2.14,5.15-2.14,8.53s.24,6.63,2.14,8.53c1.17,1.17,2.7,1.84,4.55,1.84s3.44-.67,4.6-1.84c1.9-1.9,2.15-5.16,2.15-8.53s-.25-6.64-2.15-8.53h0Z"/><path class="cls-1" d="M435.96,43.69v-3.14c-2.15,2.34-5.16,3.5-8.29,3.5s-5.83-1.04-7.67-2.82c-2.39-2.34-3.13-5.28-3.13-8.78V12.57h6.26v18.97c0,4.85,2.76,6.93,6.26,6.93s6.44-2.14,6.44-6.93V12.57h6.26v31.12h-6.14Z"/><path class="cls-1" d="M461.12,56.64c-4.72,0-7.73-1.11-10.98-4.11l3.99-3.99c1.96,1.84,3.68,2.76,6.75,2.76,5.28,0,7.3-3.75,7.3-7.92v-3.99c-2.27,2.7-4.85,3.56-8.04,3.56s-5.71-1.04-7.42-2.76c-3.01-3.01-3.5-7.36-3.5-12.64s.49-9.64,3.5-12.65c1.72-1.72,4.36-2.7,7.48-2.7,3.32,0,5.83.86,8.16,3.68v-3.32h6.08v30.94c0,7.61-5.03,13.13-13.32,13.13h0ZM461.86,17.79c-5.65,0-6.38,4.85-6.38,9.76s.73,9.76,6.38,9.76,6.32-4.85,6.32-9.76-.67-9.76-6.32-9.76h0Z"/><path class="cls-1" d="M501.99,43.69v-18.97c0-4.84-2.76-6.93-6.26-6.93s-6.44,2.16-6.44,6.93v18.97h-6.26V0h6.26v15.7c2.09-2.33,4.97-3.5,8.16-3.5s5.83,1.04,7.67,2.83c2.39,2.33,3.13,5.28,3.13,8.78v19.88h-6.26Z"/><path class="cls-1" d="M147.35,105.43c-8.9,0-15.65-6.08-15.65-15.1v-28.96h6.63v28.65c0,5.83,3.56,9.46,9.02,9.46s9.08-3.62,9.08-9.46v-28.65h6.63v28.96c0,9.02-6.81,15.1-15.71,15.1h0Z"/><path class="cls-1" d="M190.67,105.06v-18.97c0-4.84-2.76-6.93-6.26-6.93s-6.44,2.14-6.44,6.93v18.97h-6.26v-31.12h6.14v3.13c2.15-2.33,5.16-3.5,8.29-3.5s5.83,1.05,7.67,2.83c2.39,2.33,3.13,5.28,3.13,8.78v19.89h-6.26Z"/><path class="cls-1" d="M205.03,67.81v-6.62h6.63v6.62h-6.63ZM205.21,105.06v-31.12h6.26v31.12h-6.26Z"/><polygon class="cls-1" points="232.09 105.06 227 105.06 215.59 73.95 222.21 73.95 229.58 95.86 236.88 73.95 243.51 73.95 232.09 105.06 232.09 105.06"/><path class="cls-1" d="M252.22,91.32c0,5.4,2.76,8.71,7.92,8.71,3.5,0,5.34-.98,7.55-3.19l3.99,3.74c-3.19,3.19-6.19,4.85-11.66,4.85-7.79,0-13.99-4.11-13.99-15.95,0-10.13,5.22-15.9,13.19-15.9s13.2,6.02,13.2,15.1v2.64h-20.2ZM265.36,82.72c-1.04-2.33-3.19-3.93-6.14-3.93s-5.15,1.6-6.2,3.93c-.61,1.34-.73,2.33-.8,4.23h14c-.12-1.9-.25-2.89-.86-4.23h0Z"/><path class="cls-1" d="M296.47,81.25c-1.41-1.41-2.51-2.08-4.66-2.08-3.38,0-6.2,2.7-6.2,7v18.9h-6.26v-31.12h6.14v3.38c1.59-2.21,4.79-3.75,8.29-3.75,3,0,5.28.8,7.43,2.95l-4.73,4.72h0Z"/><path class="cls-1" d="M315,105.43c-5.1,0-9.39-.86-13.07-4.48l4.11-4.11c2.52,2.57,5.89,3.25,8.96,3.25,3.87,0,6.81-1.35,6.81-4.29,0-2.15-1.17-3.38-4.17-3.68l-4.97-.44c-5.89-.55-9.2-3.13-9.2-8.59,0-6.14,5.21-9.52,11.72-9.52,4.72,0,8.65.99,11.54,3.5l-3.92,3.99c-1.97-1.65-4.73-2.27-7.68-2.27-3.8,0-5.64,1.6-5.64,3.99,0,2.15,1.23,3.26,4.3,3.56l4.35.36c6.45.56,9.82,3.38,9.82,8.84,0,6.51-5.53,9.89-12.95,9.89h0Z"/><path class="cls-1" d="M334.03,67.81v-6.62h6.63v6.62h-6.63ZM334.21,105.06v-31.12h6.26v31.12h-6.26Z"/><path class="cls-1" d="M358.32,105.06c-5.83,0-8.53-4.18-8.53-8.65v-17.68h-3.56v-4.78h3.56v-8.9h6.26v8.9h6.02v4.78h-6.02v17.37c0,2.27,1.11,3.62,3.44,3.62h2.58v5.34h-3.75Z"/><path class="cls-1" d="M378.45,111.26c-.61,1.72-1.34,2.94-2.27,3.87-1.72,1.71-3.99,2.27-6.39,2.27h-2.51v-5.65h1.59c2.64,0,3.56-.8,4.48-3.32l1.72-4.85-10.86-29.64h6.63l7.42,21.91,7.24-21.91h6.68l-13.75,37.31h0Z"/></svg>